<svg xmlns="http://www.w3.org/2000/svg" viewBox="0 0 1810 1190" font-family="Helvetica, Arial, sans-serif"><title>Competitor analysis with AI assist: activity flow</title><desc>Swimlane flowchart in black, white and purple: human steps (purple) and AI steps (black) for a competitor analysis, eight steps with three review gates and a rule for what to do when a gate fails. Every step writes into one working file, competitor-analysis.md; the shareable report is an HTML page.</desc>
<defs><marker id="a" viewBox="0 0 10 10" refX="8" refY="5" markerWidth="6" markerHeight="6" orient="auto"><path d="M0 0L10 5L0 10z" fill="#6B3FEE"/></marker></defs>
<rect width="1810" height="1190" fill="#FFFFFF"/>
<text x="40" y="52" font-size="30" font-weight="700" fill="#111111">Competitor analysis with AI assist</text>
<text x="40" y="82" font-size="15" fill="#111111" fill-opacity=".62">Activity flow inside Discover. Every AI step is followed by a human review, and every step writes into one working file.</text>
<line x1="40" y1="110" x2="1770" y2="110" stroke="#111111" stroke-opacity=".12"/>
<text x="40" y="138" font-size="11" font-weight="700" fill="#111111" fill-opacity=".5" letter-spacing="1.4">YOU</text>
<line x1="40" y1="270" x2="1770" y2="270" stroke="#111111" stroke-opacity=".12"/>
<text x="40" y="298" font-size="11" font-weight="700" fill="#111111" fill-opacity=".5" letter-spacing="1.4">AI</text>
<line x1="40" y1="430" x2="1770" y2="430" stroke="#111111" stroke-opacity=".12"/>
<text x="40" y="458" font-size="11" font-weight="700" fill="#111111" fill-opacity=".5" letter-spacing="1.4">ONE WORKING FILE</text>
<line x1="40" y1="646" x2="1770" y2="646" stroke="#111111" stroke-opacity=".12"/>
<text x="40" y="674" font-size="11" font-weight="700" fill="#111111" fill-opacity=".5" letter-spacing="1.4">SHARE</text>
<line x1="40" y1="788" x2="1770" y2="788" stroke="#111111" stroke-opacity=".12"/>
<rect x="1430" y="40" width="16" height="16" rx="4" fill="#6B3FEE"/><text x="1454" y="53" font-size="12" fill="#111111">You</text>
<rect x="1510" y="40" width="16" height="16" rx="4" fill="#111111"/><text x="1534" y="53" font-size="12" fill="#111111">AI</text>
<rect x="1580" y="40" width="16" height="16" rx="4" fill="#6B3FEE" fill-opacity=".12"/><text x="1604" y="53" font-size="12" fill="#111111">File</text>
<path d="M190 253 V470" fill="none" stroke="#6B3FEE" stroke-opacity=".45" stroke-width="1.6" stroke-dasharray="2 6" stroke-linecap="round"/>
<path d="M400 413 V470" fill="none" stroke="#6B3FEE" stroke-opacity=".45" stroke-width="1.6" stroke-dasharray="2 6" stroke-linecap="round"/>
<path d="M610 253 V470" fill="none" stroke="#6B3FEE" stroke-opacity=".45" stroke-width="1.6" stroke-dasharray="2 6" stroke-linecap="round"/>
<path d="M820 253 V470" fill="none" stroke="#6B3FEE" stroke-opacity=".45" stroke-width="1.6" stroke-dasharray="2 6" stroke-linecap="round"/>
<path d="M1030 413 V470" fill="none" stroke="#6B3FEE" stroke-opacity=".45" stroke-width="1.6" stroke-dasharray="2 6" stroke-linecap="round"/>
<path d="M1240 253 V470" fill="none" stroke="#6B3FEE" stroke-opacity=".45" stroke-width="1.6" stroke-dasharray="2 6" stroke-linecap="round"/>
<path d="M1450 413 V470" fill="none" stroke="#6B3FEE" stroke-opacity=".45" stroke-width="1.6" stroke-dasharray="2 6" stroke-linecap="round"/>
<path d="M1660 253 V470" fill="none" stroke="#6B3FEE" stroke-opacity=".45" stroke-width="1.6" stroke-dasharray="2 6" stroke-linecap="round"/>
<path d="M284 190 H295 V350 H307" fill="none" stroke="#6B3FEE" stroke-width="2" stroke-linejoin="round" marker-end="url(#a)"/>
<path d="M494 350 H505 V190 H517" fill="none" stroke="#6B3FEE" stroke-width="2" stroke-linejoin="round" marker-end="url(#a)"/>
<path d="M704 190 H727" fill="none" stroke="#6B3FEE" stroke-width="2" stroke-linejoin="round" marker-end="url(#a)"/>
<path d="M914 190 H925 V350 H937" fill="none" stroke="#6B3FEE" stroke-width="2" stroke-linejoin="round" marker-end="url(#a)"/>
<path d="M1124 350 H1135 V190 H1147" fill="none" stroke="#6B3FEE" stroke-width="2" stroke-linejoin="round" marker-end="url(#a)"/>
<path d="M1334 190 H1345 V350 H1357" fill="none" stroke="#6B3FEE" stroke-width="2" stroke-linejoin="round" marker-end="url(#a)"/>
<path d="M1544 350 H1555 V190 H1567" fill="none" stroke="#6B3FEE" stroke-width="2" stroke-linejoin="round" marker-end="url(#a)"/>
<rect x="100" y="131" width="180" height="118" rx="14" fill="#6B3FEE"/>
<text x="118" y="163" font-size="14" font-weight="700" fill="#FFFFFF">1  Frame the question</text>
<text x="118" y="189" font-size="12" fill="#FFFFFF" fill-opacity=".82">Which decision? Which</text>
<text x="118" y="207" font-size="12" fill="#FFFFFF" fill-opacity=".82">criteria matter? What do</text>
<text x="118" y="225" font-size="12" fill="#FFFFFF" fill-opacity=".82">you already believe?</text>
<rect x="310" y="291" width="180" height="118" rx="14" fill="#111111"/>
<text x="328" y="323" font-size="14" font-weight="700" fill="#FFFFFF">2  Suggest</text>
<text x="328" y="349" font-size="12" fill="#FFFFFF" fill-opacity=".82">Direct, indirect and</text>
<text x="328" y="367" font-size="12" fill="#FFFFFF" fill-opacity=".82">substitute competitors.</text>
<text x="328" y="385" font-size="12" fill="#FFFFFF" fill-opacity=".82">Only criteria you missed</text>
<rect x="520" y="131" width="180" height="118" rx="14" fill="#6B3FEE"/>
<text x="538" y="163" font-size="14" font-weight="700" fill="#FFFFFF">3  Review the list</text>
<text x="538" y="189" font-size="12" fill="#FFFFFF" fill-opacity=".82">Cut and add. Note why</text>
<text x="538" y="207" font-size="12" fill="#FFFFFF" fill-opacity=".82">each is in or out. Ask</text>
<text x="538" y="225" font-size="12" fill="#FFFFFF" fill-opacity=".82">sales or support</text>
<circle cx="694" cy="137" r="15" fill="#FFFFFF" stroke="#111111" stroke-width="2"/><text x="694" y="142" font-size="14" font-weight="700" fill="#111111" text-anchor="middle">A</text>
<rect x="730" y="131" width="180" height="118" rx="14" fill="#6B3FEE"/>
<text x="748" y="163" font-size="14" font-weight="700" fill="#FFFFFF">4  Collect sources</text>
<text x="748" y="189" font-size="12" fill="#FFFFFF" fill-opacity=".82">Save screens, pricing</text>
<text x="748" y="207" font-size="12" fill="#FFFFFF" fill-opacity=".82">pages, reviews. AI may</text>
<text x="748" y="225" font-size="12" fill="#FFFFFF" fill-opacity=".82">point; you open and save</text>
<rect x="940" y="291" width="180" height="118" rx="14" fill="#111111"/>
<text x="958" y="323" font-size="14" font-weight="700" fill="#FFFFFF">5  Extract</text>
<text x="958" y="349" font-size="12" fill="#FFFFFF" fill-opacity=".82">Fill the table from YOUR</text>
<text x="958" y="367" font-size="12" fill="#FFFFFF" fill-opacity=".82">sources only. Link in each</text>
<text x="958" y="385" font-size="12" fill="#FFFFFF" fill-opacity=".82">cell. 'Unknown' if absent</text>
<rect x="1150" y="131" width="180" height="118" rx="14" fill="#6B3FEE"/>
<text x="1168" y="163" font-size="14" font-weight="700" fill="#FFFFFF">6  Spot-check</text>
<text x="1168" y="189" font-size="12" fill="#FFFFFF" fill-opacity=".82">All cells on top criteria,</text>
<text x="1168" y="207" font-size="12" fill="#FFFFFF" fill-opacity=".82">a sample of the rest.</text>
<text x="1168" y="225" font-size="12" fill="#FFFFFF" fill-opacity=".82">Fix, then lock it</text>
<circle cx="1324" cy="137" r="15" fill="#FFFFFF" stroke="#111111" stroke-width="2"/><text x="1324" y="142" font-size="14" font-weight="700" fill="#111111" text-anchor="middle">B</text>
<rect x="1360" y="291" width="180" height="118" rx="14" fill="#111111"/>
<text x="1378" y="323" font-size="14" font-weight="700" fill="#FFFFFF">7  Compare + challenge</text>
<text x="1378" y="349" font-size="12" fill="#FFFFFF" fill-opacity=".82">Patterns and gaps. Test</text>
<text x="1378" y="367" font-size="12" fill="#FFFFFF" fill-opacity=".82">your beliefs. Then: what</text>
<text x="1378" y="385" font-size="12" fill="#FFFFFF" fill-opacity=".82">would make this wrong?</text>
<rect x="1570" y="131" width="180" height="118" rx="14" fill="#6B3FEE"/>
<text x="1588" y="163" font-size="14" font-weight="700" fill="#FFFFFF">8  Interpret + decide</text>
<text x="1588" y="189" font-size="12" fill="#FFFFFF" fill-opacity=".82">Weigh by our users and</text>
<text x="1588" y="207" font-size="12" fill="#FFFFFF" fill-opacity=".82">principles. Answer the</text>
<text x="1588" y="225" font-size="12" fill="#FFFFFF" fill-opacity=".82">decision from step 1</text>
<circle cx="1744" cy="137" r="15" fill="#FFFFFF" stroke="#111111" stroke-width="2"/><text x="1744" y="142" font-size="14" font-weight="700" fill="#111111" text-anchor="middle">C</text>
<rect x="100" y="474" width="1665" height="140" rx="14" fill="#6B3FEE" fill-opacity=".12"/>
<text x="118" y="504" font-size="14" font-weight="700" font-family="Menlo, Consolas, monospace" fill="#111111">competitor-analysis.md</text>
<text x="346" y="504" font-size="12.5" fill="#111111" fill-opacity=".65">one file, filled section by section. Raw evidence is saved in the sources/ folder beside it.</text>
<line x1="118" y1="520" x2="1747" y2="520" stroke="#6B3FEE" stroke-opacity=".3"/>
<text x="118" y="562" font-size="14" font-weight="700" font-family="Menlo, Consolas, monospace" fill="#111111">## Scope</text>
<text x="118" y="586" font-size="12" fill="#111111" fill-opacity=".68">decision, criteria, beliefs</text>
<line x1="295" y1="536" x2="295" y2="596" stroke="#6B3FEE" stroke-opacity=".3"/>
<text x="328" y="562" font-size="14" font-weight="700" font-family="Menlo, Consolas, monospace" fill="#111111">## Competitors</text>
<text x="328" y="586" font-size="12" fill="#111111" fill-opacity=".68">AI suggestions added</text>
<line x1="505" y1="536" x2="505" y2="596" stroke="#6B3FEE" stroke-opacity=".3"/>
<text x="538" y="562" font-size="14" font-weight="700" font-family="Menlo, Consolas, monospace" fill="#111111">## Competitors</text>
<text x="538" y="586" font-size="12" fill="#111111" fill-opacity=".68">your final list + why</text>
<line x1="715" y1="536" x2="715" y2="596" stroke="#6B3FEE" stroke-opacity=".3"/>
<text x="748" y="562" font-size="14" font-weight="700" font-family="Menlo, Consolas, monospace" fill="#111111" fill-opacity=".6">sources/</text>
<text x="748" y="586" font-size="12" fill="#111111" fill-opacity=".68">files you save beside it</text>
<line x1="925" y1="536" x2="925" y2="596" stroke="#6B3FEE" stroke-opacity=".3"/>
<text x="958" y="562" font-size="14" font-weight="700" font-family="Menlo, Consolas, monospace" fill="#111111">## Evidence</text>
<text x="958" y="586" font-size="12" fill="#111111" fill-opacity=".68">AI draft, never edited</text>
<line x1="1135" y1="536" x2="1135" y2="596" stroke="#6B3FEE" stroke-opacity=".3"/>
<text x="1168" y="562" font-size="14" font-weight="700" font-family="Menlo, Consolas, monospace" fill="#111111">## Evidence</text>
<text x="1168" y="586" font-size="12" fill="#111111" fill-opacity=".68">your verified copy</text>
<line x1="1345" y1="536" x2="1345" y2="596" stroke="#6B3FEE" stroke-opacity=".3"/>
<text x="1378" y="562" font-size="14" font-weight="700" font-family="Menlo, Consolas, monospace" fill="#111111">## Patterns</text>
<text x="1378" y="586" font-size="12" fill="#111111" fill-opacity=".68">+ belief check, counter-case</text>
<line x1="1555" y1="536" x2="1555" y2="596" stroke="#6B3FEE" stroke-opacity=".3"/>
<text x="1588" y="562" font-size="14" font-weight="700" font-family="Menlo, Consolas, monospace" fill="#111111">## Insights</text>
<text x="1588" y="586" font-size="12" fill="#111111" fill-opacity=".68">+ decision, open questions</text>
<path d="M1660 618 V680" fill="none" stroke="#6B3FEE" stroke-width="2" marker-end="url(#a)"/>
<rect x="1400" y="684" width="350" height="88" rx="14" fill="#6B3FEE" fill-opacity=".12"/>
<text x="1418" y="716" font-size="14" font-weight="700" font-family="Menlo, Consolas, monospace" fill="#111111">analysis.html</text>
<text x="1418" y="738" font-size="12" fill="#111111" fill-opacity=".68">A page in your Experience Hub, built by you</text>
<text x="1418" y="756" font-size="12" fill="#111111" fill-opacity=".68">from the template. Feeds Define.</text>
<text x="40" y="818" font-size="11" font-weight="700" fill="#111111" fill-opacity=".5" letter-spacing="1.4">THE THREE REVIEW GATES  ·  IF THE ANSWER IS NO, GO BACK</text>
<circle cx="56" cy="858" r="15" fill="#FFFFFF" stroke="#111111" stroke-width="2"/><text x="56" y="864" font-size="15" font-weight="700" fill="#111111" text-anchor="middle">A</text>
<text x="84" y="854" font-size="14" font-weight="700" fill="#111111">Right competitors?</text>
<text x="84" y="876" font-size="12" fill="#111111" fill-opacity=".68">Are these real alternatives for OUR users?</text>
<text x="84" y="894" font-size="12" fill="#111111" fill-opacity=".68">Who is missing? Why were others cut?</text>
<text x="84" y="918" font-size="12" font-weight="700" fill="#6B3FEE">No: back to step 2 and revise the list</text>
<circle cx="656" cy="858" r="15" fill="#FFFFFF" stroke="#111111" stroke-width="2"/><text x="656" y="864" font-size="15" font-weight="700" fill="#111111" text-anchor="middle">B</text>
<text x="684" y="854" font-size="14" font-weight="700" fill="#111111">Traceable?</text>
<text x="684" y="876" font-size="12" fill="#111111" fill-opacity=".68">Does every cell trace to a source you can open?</text>
<text x="684" y="894" font-size="12" fill="#111111" fill-opacity=".68">Unknown stays unknown, never guessed.</text>
<text x="684" y="918" font-size="12" font-weight="700" fill="#6B3FEE">No (many errors): rerun step 5 with a tighter instruction</text>
<circle cx="1256" cy="858" r="15" fill="#FFFFFF" stroke="#111111" stroke-width="2"/><text x="1256" y="864" font-size="15" font-weight="700" fill="#111111" text-anchor="middle">C</text>
<text x="1284" y="854" font-size="14" font-weight="700" fill="#111111">Evidence, not AI opinion?</text>
<text x="1284" y="876" font-size="12" fill="#111111" fill-opacity=".68">Does each insight tie to our problem and principles?</text>
<text x="1284" y="894" font-size="12" fill="#111111" fill-opacity=".68">Could you defend it with the source?</text>
<text x="1284" y="918" font-size="12" font-weight="700" fill="#6B3FEE">No: back to step 7 and redo the comparison</text>
<rect x="40" y="950" width="1730" height="86" rx="14" fill="#6B3FEE" fill-opacity=".12"/>
<text x="64" y="978" font-size="13" font-weight="700" fill="#111111">TWO RULES THAT KEEP ONE FILE SAFE</text>
<text x="64" y="1000" font-size="13" fill="#111111" fill-opacity=".8">1. The AI returns only its own section; you paste it in, so it cannot rewrite what you already settled.</text>
<text x="64" y="1020" font-size="13" fill="#111111" fill-opacity=".8">2. Keep the AI draft and your verified version as separate sections: the gap between them is your error rate.</text>
<rect x="40" y="1060" width="1730" height="72" rx="14" fill="#111111"/>
<text x="64" y="1088" font-size="13" font-weight="700" fill="#FFFFFF">WHAT THIS CANNOT TELL YOU</text>
<text x="64" y="1110" font-size="13" fill="#FFFFFF" fill-opacity=".85">Competitor analysis shows what rivals do, not why users choose them. That needs real users (Discover interviews).</text>
</svg>